<?xml version="1.0" encoding="UTF-8"?>
<svg width="121px" height="22px" viewBox="0 0 121 22" version="1.1" xmlns="http://www.w3.org/2000/svg" xmlns:xlink="http://www.w3.org/1999/xlink">
    <!-- Generator: Sketch 53 (72520) - https://sketchapp.com -->
    <title>DatavizUI_logo Copy 2</title>
    <desc>Created with Sketch.</desc>
    <defs>
        <path d="M1.85806452,0 L21.5837419,0 C22.6096203,0.0004338102 23.4410323,0.844569807 23.4410323,1.88571429 L23.4410323,15.9798571 C23.4410323,17.0213084 22.6091484,17.8655714 21.5829677,17.8655714 L14.4185806,17.8655714 L8.77083871,22 L8.38606452,17.8647857 L1.85729032,17.8647857 C0.83171422,17.8643521 0.000427234425,17.0206948 0,15.9798571 L0,1.88571429 C-1.25670891e-16,0.844263043 0.83188382,1.9131149e-16 1.85806452,0 Z" id="path-1"></path>
        <path d="M1.85806452,0 L21.5837419,0 C22.6096203,0.0004338102 23.4410323,0.844569807 23.4410323,1.88571429 L23.4410323,15.9798571 C23.4410323,17.0213084 22.6091484,17.8655714 21.5829677,17.8655714 L14.4185806,17.8655714 L8.77083871,22 L8.38606452,17.8647857 L1.85729032,17.8647857 C0.83171422,17.8643521 0.000427234425,17.0206948 0,15.9798571 L0,1.88571429 C-1.25670891e-16,0.844263043 0.83188382,1.9131149e-16 1.85806452,0 Z" id="path-3"></path>
        <path d="M1.85806452,0 L21.5837419,0 C22.6096203,0.0004338102 23.4410323,0.844569807 23.4410323,1.88571429 L23.4410323,15.9798571 C23.4410323,17.0213084 22.6091484,17.8655714 21.5829677,17.8655714 L14.4185806,17.8655714 L8.77083871,22 L8.38606452,17.8647857 L1.85729032,17.8647857 C0.83171422,17.8643521 0.000427234425,17.0206948 0,15.9798571 L0,1.88571429 C-1.25670891e-16,0.844263043 0.83188382,1.9131149e-16 1.85806452,0 Z" id="path-5"></path>
        <path d="M1.85806452,0 L21.5837419,0 C22.6096203,0.0004338102 23.4410323,0.844569807 23.4410323,1.88571429 L23.4410323,15.9798571 C23.4410323,17.0213084 22.6091484,17.8655714 21.5829677,17.8655714 L14.4185806,17.8655714 L8.77083871,22 L8.38606452,17.8647857 L1.85729032,17.8647857 C0.83171422,17.8643521 0.000427234425,17.0206948 0,15.9798571 L0,1.88571429 C-1.25670891e-16,0.844263043 0.83188382,1.9131149e-16 1.85806452,0 Z" id="path-7"></path>
        <path d="M1.85806452,0 L21.5837419,0 C22.6096203,0.0004338102 23.4410323,0.844569807 23.4410323,1.88571429 L23.4410323,15.9798571 C23.4410323,17.0213084 22.6091484,17.8655714 21.5829677,17.8655714 L14.4185806,17.8655714 L8.77083871,22 L8.38606452,17.8647857 L1.85729032,17.8647857 C0.83171422,17.8643521 0.000427234425,17.0206948 0,15.9798571 L0,1.88571429 C-1.25670891e-16,0.844263043 0.83188382,1.9131149e-16 1.85806452,0 Z" id="path-9"></path>
    </defs>
    <g id="Page-1" stroke="none" stroke-width="1" fill="none" fill-rule="evenodd">
        <g id="DatavizUI_logo-Copy-2">
            <g id="Group-Copy-2">
                <g id="a-link" fill="#9151EC" fill-rule="nonzero">
                    <path d="M1.85806452,0 L21.5837419,0 C22.6096203,0.0004338102 23.4410323,0.844569807 23.4410323,1.88571429 L23.4410323,15.9798571 C23.4410323,17.0213084 22.6091484,17.8655714 21.5829677,17.8655714 L14.4185806,17.8655714 L8.77083871,22 L8.38606452,17.8647857 L1.85729032,17.8647857 C0.83171422,17.8643521 0.000427234425,17.0206948 0,15.9798571 L0,1.88571429 C-1.25670891e-16,0.844263043 0.83188382,1.9131149e-16 1.85806452,0 Z" id="a"></path>
                </g>
                <g id="Clipped">
                    <g id="Path-Clipped">
                        <mask id="mask-2" fill="white">
                            <use xlink:href="#path-1"></use>
                        </mask>
                        <g id="path-1"></g>
                        <polygon id="Path" fill="#7515FF" fill-rule="nonzero" mask="url(#mask-2)" points="-1.26967742 -2.35714286 7.9323871 2.70285714 -5.41935484 21.9473571 1.67225806 21.9473571 15.1393548 2.70285714 6.28412903 -2.35714286"></polygon>
                    </g>
                </g>
                <g id="Clipped">
                    <g id="Path-Clipped">
                        <mask id="mask-4" fill="white">
                            <use xlink:href="#path-3"></use>
                        </mask>
                        <g id="path-3"></g>
                        <polygon id="Path" fill="#4F11DC" fill-rule="nonzero" mask="url(#mask-4)" points="5.69806452 -2.35714286 14.900129 2.70285714 1.5483871 21.9473571 8.64 21.9473571 22.1070968 2.70285714 13.251871 -2.35714286"></polygon>
                    </g>
                </g>
                <g id="Clipped">
                    <g id="Path-Clipped">
                        <mask id="mask-6" fill="white">
                            <use xlink:href="#path-5"></use>
                        </mask>
                        <g id="path-5"></g>
                        <polygon id="Path" fill="#3700B3" fill-rule="nonzero" mask="url(#mask-6)" points="11.8916129 -2.35714286 21.0936774 2.70285714 7.74193548 21.9473571 14.8335484 21.9473571 28.3006452 2.70285714 19.4454194 -2.35714286"></polygon>
                    </g>
                </g>
                <g id="Clipped">
                    <g id="Path-Clipped">
                        <mask id="mask-8" fill="white">
                            <use xlink:href="#path-7"></use>
                        </mask>
                        <g id="path-7"></g>
                        <polygon id="Path" fill="#9850FF" fill-rule="nonzero" mask="url(#mask-8)" points="-10.7094194 -2.35714286 -0.120774194 3.19314286 -15.483871 24.3052857 -5.97832258 24.3571429 8.52 2.35714286 -1.18993548 -3.11535714"></polygon>
                    </g>
                </g>
                <g id="Clipped">
                    <g id="Path-Clipped">
                        <mask id="mask-10" fill="white">
                            <use xlink:href="#path-9"></use>
                        </mask>
                        <g id="path-9"></g>
                        <polygon id="Path" fill="#300A86" fill-rule="nonzero" mask="url(#mask-10)" points="18.0851613 -2.35714286 27.2872258 2.70285714 13.9354839 21.9473571 21.0270968 21.9473571 34.4941935 2.70285714 25.6389677 -2.35714286"></polygon>
                    </g>
                </g>
            </g>
            <polygon id="Path-Copy-2" fill="#FFFFFF" fill-rule="nonzero" points="13.1428571 5 18.5 5 18.5 10.6255066 16.4578755 8.4806809 12.0714286 13.4374493 8.48855311 9.5004053 3.5 14 8.48855311 6.86436098 12.0714286 10.6255066 15.2185592 7.18049176"></polygon>
            <path d="M30.938,18 C30.8113327,18 30.7036671,17.9556671 30.615,17.867 C30.5263329,17.7783329 30.482,17.6706673 30.482,17.544 L30.482,5.175 C30.482,5.03566597 30.5231663,4.92166711 30.6055,4.833 C30.6878337,4.74433289 30.798666,4.7 30.938,4.7 L35.574,4.7 C39.3106853,4.7 41.2169996,6.42264944 41.293,9.868 C41.3183335,10.6026703 41.331,11.0966654 41.331,11.35 C41.331,11.5906679 41.3183335,12.0783297 41.293,12.813 C41.2423331,14.5863422 40.7641712,15.8941625 39.8585,16.7365 C38.9528288,17.5788375 37.5563428,18 35.669,18 L30.938,18 Z M35.574,15.796 C36.6253386,15.796 37.385331,15.561669 37.854,15.093 C38.322669,14.624331 38.5696665,13.8453388 38.595,12.756 C38.6203335,11.9959962 38.633,11.5210009 38.633,11.331 C38.633,11.1283323 38.6203335,10.6596703 38.595,9.925 C38.5696665,8.88632814 38.3100025,8.12316911 37.816,7.6355 C37.3219975,7.1478309 36.5430053,6.904 35.479,6.904 L33.161,6.904 L33.161,15.796 L35.574,15.796 Z M46.48,18.19 C45.8339968,18.19 45.241836,18.060168 44.7035,17.8005 C44.165164,17.540832 43.7408349,17.1893355 43.4305,16.746 C43.1201651,16.3026645 42.965,15.8150027 42.965,15.283 C42.965,14.4216624 43.3133299,13.7250027 44.01,13.193 C44.7066702,12.6609973 45.6629939,12.3000009 46.879,12.11 L49.482,11.73 L49.482,11.331 C49.482,10.7863306 49.3426681,10.3746681 49.064,10.096 C48.7853319,9.81733194 48.342003,9.678 47.734,9.678 C47.3159979,9.678 46.9803346,9.75399924 46.727,9.906 C46.4736654,10.0580008 46.2678341,10.2131659 46.1095,10.3715 L45.796,10.685 C45.7453331,10.8370008 45.650334,10.913 45.511,10.913 L44.029,10.913 C43.9149994,10.913 43.8168337,10.8750004 43.7345,10.799 C43.6521663,10.7229996 43.611,10.6216673 43.611,10.495 C43.6236667,10.1783318 43.7788318,9.820502 44.0765,9.4215 C44.3741682,9.022498 44.8333302,8.67416816 45.454,8.3765 C46.0746698,8.07883184 46.8409954,7.93 47.753,7.93 C49.2476741,7.93 50.3369966,8.26566331 51.021,8.937 C51.7050034,9.60833669 52.047,10.4886612 52.047,11.578 L52.047,17.544 C52.047,17.6706673 52.0058337,17.7783329 51.9235,17.867 C51.8411663,17.9556671 51.730334,18 51.591,18 L50.014,18 C49.8873327,18 49.7796671,17.9556671 49.691,17.867 C49.6023329,17.7783329 49.558,17.6706673 49.558,17.544 L49.558,16.803 C49.2793319,17.2083354 48.8866692,17.540832 48.38,17.8005 C47.8733308,18.060168 47.2400038,18.19 46.48,18.19 Z M47.126,16.366 C47.8226702,16.366 48.3926644,16.1380023 48.836,15.682 C49.2793355,15.2259977 49.501,14.5673376 49.501,13.706 L49.501,13.326 L47.601,13.63 C46.1443261,13.8580011 45.416,14.3456629 45.416,15.093 C45.416,15.4983354 45.5838317,15.8118322 45.9195,16.0335 C46.2551683,16.2551678 46.657331,16.366 47.126,16.366 Z M58.963,18 C57.8103276,18 56.9426696,17.6991697 56.36,17.0975 C55.7773304,16.4958303 55.486,15.6123392 55.486,14.447 L55.486,10.153 L53.985,10.153 C53.8583327,10.153 53.7506671,10.1086671 53.662,10.02 C53.5733329,9.93133289 53.529,9.8236673 53.529,9.697 L53.529,8.576 C53.529,8.4493327 53.5733329,8.34166711 53.662,8.253 C53.7506671,8.16433289 53.8583327,8.12 53.985,8.12 L55.486,8.12 L55.486,4.966 C55.486,4.82666597 55.5303329,4.71583374 55.619,4.6335 C55.7076671,4.55116625 55.8153327,4.51 55.942,4.51 L57.519,4.51 C57.658334,4.51 57.7691663,4.55116625 57.8515,4.6335 C57.9338337,4.71583374 57.975,4.82666597 57.975,4.966 L57.975,8.12 L60.35,8.12 C60.4766673,8.12 60.5843329,8.16433289 60.673,8.253 C60.7616671,8.34166711 60.806,8.4493327 60.806,8.576 L60.806,9.697 C60.806,9.8236673 60.7616671,9.93133289 60.673,10.02 C60.5843329,10.1086671 60.4766673,10.153 60.35,10.153 L57.975,10.153 L57.975,14.238 C57.975,14.7826694 58.069999,15.1943319 58.26,15.473 C58.450001,15.7516681 58.7603312,15.891 59.191,15.891 L60.521,15.891 C60.660334,15.891 60.7711663,15.9321663 60.8535,16.0145 C60.9358337,16.0968337 60.977,16.207666 60.977,16.347 L60.977,17.544 C60.977,17.6706673 60.9358337,17.7783329 60.8535,17.867 C60.7711663,17.9556671 60.660334,18 60.521,18 L58.963,18 Z M65.537,18.19 C64.8909968,18.19 64.298836,18.060168 63.7605,17.8005 C63.222164,17.540832 62.7978349,17.1893355 62.4875,16.746 C62.1771651,16.3026645 62.022,15.8150027 62.022,15.283 C62.022,14.4216624 62.3703299,13.7250027 63.067,13.193 C63.7636702,12.6609973 64.7199939,12.3000009 65.936,12.11 L68.539,11.73 L68.539,11.331 C68.539,10.7863306 68.3996681,10.3746681 68.121,10.096 C67.8423319,9.81733194 67.399003,9.678 66.791,9.678 C66.3729979,9.678 66.0373346,9.75399924 65.784,9.906 C65.5306654,10.0580008 65.3248341,10.2131659 65.1665,10.3715 L64.853,10.685 C64.8023331,10.8370008 64.707334,10.913 64.568,10.913 L63.086,10.913 C62.9719994,10.913 62.8738337,10.8750004 62.7915,10.799 C62.7091663,10.7229996 62.668,10.6216673 62.668,10.495 C62.6806667,10.1783318 62.8358318,9.820502 63.1335,9.4215 C63.4311682,9.022498 63.8903302,8.67416816 64.511,8.3765 C65.1316698,8.07883184 65.8979954,7.93 66.81,7.93 C68.3046741,7.93 69.3939966,8.26566331 70.078,8.937 C70.7620034,9.60833669 71.104,10.4886612 71.104,11.578 L71.104,17.544 C71.104,17.6706673 71.0628337,17.7783329 70.9805,17.867 C70.8981663,17.9556671 70.787334,18 70.648,18 L69.071,18 C68.9443327,18 68.8366671,17.9556671 68.748,17.867 C68.6593329,17.7783329 68.615,17.6706673 68.615,17.544 L68.615,16.803 C68.3363319,17.2083354 67.9436692,17.540832 67.437,17.8005 C66.9303308,18.060168 66.2970038,18.19 65.537,18.19 Z M66.183,16.366 C66.8796701,16.366 67.4496645,16.1380023 67.893,15.682 C68.3363356,15.2259977 68.558,14.5673376 68.558,13.706 L68.558,13.326 L66.658,13.63 C65.2013261,13.8580011 64.473,14.3456629 64.473,15.093 C64.473,15.4983354 64.6408317,15.8118322 64.9765,16.0335 C65.3121683,16.2551678 65.714331,16.366 66.183,16.366 Z M77.032,18 C76.841999,18 76.6963338,17.9588337 76.595,17.8765 C76.4936662,17.7941663 76.4113337,17.6770008 76.348,17.525 L72.776,8.709 C72.7633333,8.67099981 72.757,8.61400038 72.757,8.538 C72.757,8.42399943 72.7981663,8.32583375 72.8805,8.2435 C72.9628337,8.16116626 73.0546662,8.12 73.156,8.12 L74.733,8.12 C74.9863346,8.12 75.1573329,8.24033213 75.246,8.481 L77.754,15.112 L80.262,8.481 C80.2873335,8.39233289 80.3411663,8.31000038 80.4235,8.234 C80.5058337,8.15799962 80.616666,8.12 80.756,8.12 L82.333,8.12 C82.4470006,8.12 82.5419996,8.16116626 82.618,8.2435 C82.6940004,8.32583375 82.732,8.42399943 82.732,8.538 C82.732,8.61400038 82.7256667,8.67099981 82.713,8.709 L79.16,17.525 C79.020666,17.8416682 78.7926682,18 78.476,18 L77.032,18 Z M84.841,6.505 C84.7143327,6.505 84.6066671,6.46066711 84.518,6.372 C84.4293329,6.28333289 84.385,6.1756673 84.385,6.049 L84.385,4.662 C84.385,4.52266597 84.4293329,4.40866711 84.518,4.32 C84.6066671,4.23133289 84.7143327,4.187 84.841,4.187 L86.589,4.187 C86.728334,4.187 86.8423329,4.23133289 86.931,4.32 C87.0196671,4.40866711 87.064,4.52266597 87.064,4.662 L87.064,6.049 C87.064,6.1756673 87.0165005,6.28333289 86.9215,6.372 C86.8264995,6.46066711 86.7156673,6.505 86.589,6.505 L84.841,6.505 Z M84.917,18 C84.7903327,18 84.6826671,17.9556671 84.594,17.867 C84.5053329,17.7783329 84.461,17.6706673 84.461,17.544 L84.461,8.576 C84.461,8.43666597 84.5053329,8.32583375 84.594,8.2435 C84.6826671,8.16116626 84.7903327,8.12 84.917,8.12 L86.532,8.12 C86.6586673,8.12 86.7663329,8.16433289 86.855,8.253 C86.9436671,8.34166711 86.988,8.4493327 86.988,8.576 L86.988,17.544 C86.988,17.6706673 86.9436671,17.7783329 86.855,17.867 C86.7663329,17.9556671 86.6586673,18 86.532,18 L84.917,18 Z M89.458,18 C89.3313327,18 89.2236671,17.9556671 89.135,17.867 C89.0463329,17.7783329 89.002,17.6706673 89.002,17.544 L89.002,16.442 C89.002,16.3279994 89.0241664,16.2266671 89.0685,16.138 C89.1128336,16.0493329 89.1793329,15.9416673 89.268,15.815 L94.113,10.134 L89.61,10.134 C89.4833327,10.134 89.3756671,10.0865005 89.287,9.9915 C89.1983329,9.89649952 89.154,9.7856673 89.154,9.659 L89.154,8.576 C89.154,8.4493327 89.1983329,8.34166711 89.287,8.253 C89.3756671,8.16433289 89.4833327,8.12 89.61,8.12 L96.849,8.12 C96.9756673,8.12 97.0833329,8.16433289 97.172,8.253 C97.2606671,8.34166711 97.305,8.4493327 97.305,8.576 L97.305,9.754 C97.305,9.85533384 97.2765003,9.95666616 97.2195,10.058 C97.1624997,10.1593338 97.1023337,10.2543329 97.039,10.343 L92.289,15.986 L97.229,15.986 C97.3556673,15.986 97.4633329,16.0303329 97.552,16.119 C97.6406671,16.2076671 97.685,16.321666 97.685,16.461 L97.685,17.544 C97.685,17.6706673 97.6438337,17.7783329 97.5615,17.867 C97.4791663,17.9556671 97.368334,18 97.229,18 L89.458,18 Z M109.484,18.19 C107.761325,18.19 106.425005,17.7530044 105.475,16.879 C104.524995,16.0049956 104.05,14.6813422 104.05,12.908 L104.05,5.175 C104.05,5.03566597 104.091166,4.92166711 104.1735,4.833 C104.255834,4.74433289 104.366666,4.7 104.506,4.7 L106.254,4.7 C106.393334,4.7 106.507333,4.74433289 106.596,4.833 C106.684667,4.92166711 106.729,5.03566597 106.729,5.175 L106.729,12.908 C106.729,13.9086717 106.966498,14.6623308 107.4415,15.169 C107.916502,15.6756692 108.590996,15.929 109.465,15.929 C110.339004,15.929 111.013498,15.6756692 111.4885,15.169 C111.963502,14.6623308 112.201,13.9086717 112.201,12.908 L112.201,5.175 C112.201,5.03566597 112.245333,4.92166711 112.334,4.833 C112.422667,4.74433289 112.536666,4.7 112.676,4.7 L114.424,4.7 C114.563334,4.7 114.674166,4.74433289 114.7565,4.833 C114.838834,4.92166711 114.88,5.03566597 114.88,5.175 L114.88,12.908 C114.88,14.6813422 114.408171,16.0049956 113.4645,16.879 C112.520829,17.7530044 111.194009,18.19 109.484,18.19 Z M118.186,18 C118.059333,18 117.951667,17.9556671 117.863,17.867 C117.774333,17.7783329 117.73,17.6706673 117.73,17.544 L117.73,5.156 C117.73,5.01666597 117.774333,4.90583375 117.863,4.8235 C117.951667,4.74116626 118.059333,4.7 118.186,4.7 L120.01,4.7 C120.149334,4.7 120.260166,4.74116626 120.3425,4.8235 C120.424834,4.90583375 120.466,5.01666597 120.466,5.156 L120.466,17.544 C120.466,17.6706673 120.424834,17.7783329 120.3425,17.867 C120.260166,17.9556671 120.149334,18 120.01,18 L118.186,18 Z" id="DatavizUI" fill="#FFFFFF" fill-rule="nonzero"></path>
        </g>
    </g>
</svg>