<?xml version="1.0" encoding="UTF-8"?>
<svg width="24px" height="22px" viewBox="0 0 24 22" version="1.1" xmlns="http://www.w3.org/2000/svg" xmlns:xlink="http://www.w3.org/1999/xlink">
    <!-- Generator: Sketch 53 (72520) - https://sketchapp.com -->
    <title>Group</title>
    <desc>Created with Sketch.</desc>
    <defs>
        <path d="M1.85806452,0 L21.5837419,0 C22.6096203,0.0004338102 23.4410323,0.844569807 23.4410323,1.88571429 L23.4410323,15.9798571 C23.4410323,17.0213084 22.6091484,17.8655714 21.5829677,17.8655714 L14.4185806,17.8655714 L8.77083871,22 L8.38606452,17.8647857 L1.85729032,17.8647857 C0.83171422,17.8643521 0.000427234425,17.0206948 0,15.9798571 L0,1.88571429 C-1.25670891e-16,0.844263043 0.83188382,1.9131149e-16 1.85806452,0 Z" id="path-1"></path>
        <path d="M1.85806452,0 L21.5837419,0 C22.6096203,0.0004338102 23.4410323,0.844569807 23.4410323,1.88571429 L23.4410323,15.9798571 C23.4410323,17.0213084 22.6091484,17.8655714 21.5829677,17.8655714 L14.4185806,17.8655714 L8.77083871,22 L8.38606452,17.8647857 L1.85729032,17.8647857 C0.83171422,17.8643521 0.000427234425,17.0206948 0,15.9798571 L0,1.88571429 C-1.25670891e-16,0.844263043 0.83188382,1.9131149e-16 1.85806452,0 Z" id="path-3"></path>
        <path d="M1.85806452,0 L21.5837419,0 C22.6096203,0.0004338102 23.4410323,0.844569807 23.4410323,1.88571429 L23.4410323,15.9798571 C23.4410323,17.0213084 22.6091484,17.8655714 21.5829677,17.8655714 L14.4185806,17.8655714 L8.77083871,22 L8.38606452,17.8647857 L1.85729032,17.8647857 C0.83171422,17.8643521 0.000427234425,17.0206948 0,15.9798571 L0,1.88571429 C-1.25670891e-16,0.844263043 0.83188382,1.9131149e-16 1.85806452,0 Z" id="path-5"></path>
        <path d="M1.85806452,0 L21.5837419,0 C22.6096203,0.0004338102 23.4410323,0.844569807 23.4410323,1.88571429 L23.4410323,15.9798571 C23.4410323,17.0213084 22.6091484,17.8655714 21.5829677,17.8655714 L14.4185806,17.8655714 L8.77083871,22 L8.38606452,17.8647857 L1.85729032,17.8647857 C0.83171422,17.8643521 0.000427234425,17.0206948 0,15.9798571 L0,1.88571429 C-1.25670891e-16,0.844263043 0.83188382,1.9131149e-16 1.85806452,0 Z" id="path-7"></path>
        <path d="M1.85806452,0 L21.5837419,0 C22.6096203,0.0004338102 23.4410323,0.844569807 23.4410323,1.88571429 L23.4410323,15.9798571 C23.4410323,17.0213084 22.6091484,17.8655714 21.5829677,17.8655714 L14.4185806,17.8655714 L8.77083871,22 L8.38606452,17.8647857 L1.85729032,17.8647857 C0.83171422,17.8643521 0.000427234425,17.0206948 0,15.9798571 L0,1.88571429 C-1.25670891e-16,0.844263043 0.83188382,1.9131149e-16 1.85806452,0 Z" id="path-9"></path>
    </defs>
    <g id="Page-1" stroke="none" stroke-width="1" fill="none" fill-rule="evenodd">
        <g id="Group">
            <g id="Group-Copy-2">
                <g id="a-link" fill="#9151EC" fill-rule="nonzero">
                    <path d="M1.85806452,0 L21.5837419,0 C22.6096203,0.0004338102 23.4410323,0.844569807 23.4410323,1.88571429 L23.4410323,15.9798571 C23.4410323,17.0213084 22.6091484,17.8655714 21.5829677,17.8655714 L14.4185806,17.8655714 L8.77083871,22 L8.38606452,17.8647857 L1.85729032,17.8647857 C0.83171422,17.8643521 0.000427234425,17.0206948 0,15.9798571 L0,1.88571429 C-1.25670891e-16,0.844263043 0.83188382,1.9131149e-16 1.85806452,0 Z" id="a"></path>
                </g>
                <g id="Clipped">
                    <g id="Path-Clipped">
                        <g>
                            <mask id="mask-2" fill="white">
                                <use xlink:href="#path-1"></use>
                            </mask>
                            <g id="path-1"></g>
                            <polygon id="Path" fill="#7515FF" fill-rule="nonzero" mask="url(#mask-2)" points="-1.26967742 -2.35714286 7.9323871 2.70285714 -5.41935484 21.9473571 1.67225806 21.9473571 15.1393548 2.70285714 6.28412903 -2.35714286"></polygon>
                        </g>
                    </g>
                </g>
                <g id="Clipped">
                    <g id="Path-Clipped">
                        <g>
                            <mask id="mask-4" fill="white">
                                <use xlink:href="#path-3"></use>
                            </mask>
                            <g id="path-3"></g>
                            <polygon id="Path" fill="#4F11DC" fill-rule="nonzero" mask="url(#mask-4)" points="5.69806452 -2.35714286 14.900129 2.70285714 1.5483871 21.9473571 8.64 21.9473571 22.1070968 2.70285714 13.251871 -2.35714286"></polygon>
                        </g>
                    </g>
                </g>
                <g id="Clipped">
                    <g id="Path-Clipped">
                        <g>
                            <mask id="mask-6" fill="white">
                                <use xlink:href="#path-5"></use>
                            </mask>
                            <g id="path-5"></g>
                            <polygon id="Path" fill="#3700B3" fill-rule="nonzero" mask="url(#mask-6)" points="11.8916129 -2.35714286 21.0936774 2.70285714 7.74193548 21.9473571 14.8335484 21.9473571 28.3006452 2.70285714 19.4454194 -2.35714286"></polygon>
                        </g>
                    </g>
                </g>
                <g id="Clipped">
                    <g id="Path-Clipped">
                        <g>
                            <mask id="mask-8" fill="white">
                                <use xlink:href="#path-7"></use>
                            </mask>
                            <g id="path-7"></g>
                            <polygon id="Path" fill="#9850FF" fill-rule="nonzero" mask="url(#mask-8)" points="-10.7094194 -2.35714286 -0.120774194 3.19314286 -15.483871 24.3052857 -5.97832258 24.3571429 8.52 2.35714286 -1.18993548 -3.11535714"></polygon>
                        </g>
                    </g>
                </g>
                <g id="Clipped">
                    <g id="Path-Clipped">
                        <g>
                            <mask id="mask-10" fill="white">
                                <use xlink:href="#path-9"></use>
                            </mask>
                            <g id="path-9"></g>
                            <polygon id="Path" fill="#300A86" fill-rule="nonzero" mask="url(#mask-10)" points="18.0851613 -2.35714286 27.2872258 2.70285714 13.9354839 21.9473571 21.0270968 21.9473571 34.4941935 2.70285714 25.6389677 -2.35714286"></polygon>
                        </g>
                    </g>
                </g>
            </g>
            <polygon id="Path-Copy-2" fill="#FFFFFF" fill-rule="nonzero" points="13.6428571 5 19 5 19 10.6255066 16.9578755 8.4806809 12.5714286 13.4374493 8.98855311 9.5004053 4 14 8.98855311 6.86436098 12.5714286 10.6255066 15.7185592 7.18049176"></polygon>
        </g>
    </g>
</svg>